{"title":"Dark Skies 2013 Webrip Xvid AC3 - TODE","uid":8336150,"size":687719867,"categoryP":"video","categoryS":"movies","magnet":"?xt=urn:btih:883b5112bbce106235c438f32deac273c2e69378&amp;dn=Dark+Skies+2013+Webrip+Xvid+AC3+-+TODE&amp;tr=udp%3A%2F%2Ftracker.openbittorrent.com%3A80&amp;tr=udp%3A%2F%2Fopen.demonii.com%3A1337&amp;tr=udp%3A%2F%2Ftracker.coppersurfer.tk%3A6969&amp;tr=udp%3A%2F%2Fexodus.desync.com%3A6969","seeders":1,"leechers":0,"uploader":"xxxlavalxxx","files":3,"time":1364947755,"description":" &lt;a href=&quot;\nhttp://www.shotpix.com/images/50879285007033932624.jpg&quot; rel=&quot;nofollow&quot; target=&quot;_NEW&quot;&gt;\nhttp://www.shotpix.com/images/50879285007033932624.jpg&lt;/a&gt;\n\n\n &lt;a href=&quot;\nhttp://www.imdb.com/title/tt2387433/&quot; rel=&quot;nofollow&quot; target=&quot;_NEW&quot;&gt;\nhttp://www.imdb.com/title/tt2387433/&lt;/a&gt;\n\n\n\nPlot: As the Barret family's peaceful suburban life is rocked by an escalating series of disturbing events, they come to learn that a terrifying and deadly force is after them. \n\n\n\nDirector:\n Scott Stewart \n\nWriter:\n Scott Stewart \n\nStars:\n Keri Russell, Jake Brennan, Josh Hamilton \n\nGenres:\n  Horror |  Sci-Fi |  Thriller \n\nCountry:\n USA \n\nLanguage:\n English \n\n\nThanks : TommieCook\n\n\n\n\nFormat                                   : AVI\nFormat/Info                              : Audio Video Interleave\nFile size                                : 647 MiB\nDuration                                 : 1h 33mn\nOverall bit rate                         : 972 Kbps\nWriting application                      : Lavf54.59.103\n\nVideo\nID                                       : 0\nFormat                                   : MPEG-4 Visual\nFormat profile                           : Simple@L3\nFormat settings, BVOP                    : No\nFormat settings, QPel                    : No\nFormat settings, GMC                     : No warppoints\nFormat settings, Matrix                  : Default (H.263)\nCodec ID                                 : XVID\nCodec ID/Hint                            : XviD\nDuration                                 : 1h 33mn\nBit rate                                 : 833 Kbps\nWidth                                    : 640 pixels\nHeight                                   : 272 pixels\nDisplay aspect ratio                     : 2.35:1\nFrame rate                               : 25.000 fps\nColor space                              : YUV\nChroma subsampling                       : 4:2:0\nBit depth                                : 8 bits\nScan type                                : Progressive\nCompression mode                         : Lossy\nBits/(Pixel*Frame)                       : 0.191\nStream size                              : 554 MiB (86%)\nWriting library                          : XviD 64\n\nAudio\nID                                       : 1\nFormat                                   : AC-3\nFormat/Info                              : Audio Coding 3\nMode extension                           : CM (complete main)\nFormat settings, Endianness              : Big\nCodec ID                                 : 2000\nDuration                                 : 1h 33mn\nBit rate mode                            : Constant\nBit rate                                 : 128 Kbps\nChannel(s)                               : 2 channels\nChannel positions                        : Front: L R\nSampling rate                            : 48.0 KHz\nBit depth                                : 16 bits\nCompression mode                         : Lossy\nStream size                              : 85.2 MiB (13%)\nAlignment                                : Aligned on interleaves\nInterleave, duration                     : 32 ms (0.80 video frame)\n\n\n\n    \t &lt;a href=&quot;\nhttp://www.shotpix.com/images/82784175763896643126.png&quot; rel=&quot;nofollow&quot; target=&quot;_NEW&quot;&gt;\nhttp://www.shotpix.com/images/82784175763896643126.png&lt;/a&gt;\n    \t &lt;a href=&quot;\nhttp://www.shotpix.com/images/58890976667005269158.png&quot; rel=&quot;nofollow&quot; target=&quot;_NEW&quot;&gt;\nhttp://www.shotpix.com/images/58890976667005269158.png&lt;/a&gt;\n    \t &lt;a href=&quot;\nhttp://www.shotpix.com/images/86569499475118807773.png&quot; rel=&quot;nofollow&quot; target=&quot;_NEW&quot;&gt;\nhttp://www.shotpix.com/images/86569499475118807773.png&lt;/a&gt;\n    \t &lt;a href=&quot;\nhttp://www.shotpix.com/images/13242574123707746079.png&quot; rel=&quot;nofollow&quot; target=&quot;_NEW&quot;&gt;\nhttp://www.shotpix.com/images/13242574123707746079.png&lt;/a&gt;\n    \t &lt;a href=&quot;\nhttp://www.shotpix.com/images/15640411756333569799.png&quot; rel=&quot;nofollow&quot; target=&quot;_NEW&quot;&gt;\nhttp://www.shotpix.com/images/15640411756333569799.png&lt;/a&gt;\n    \t &lt;a href=&quot;\nhttp://www.shotpix.com/images/73072230309540911322.png&quot; rel=&quot;nofollow&quot; target=&quot;_NEW&quot;&gt;\nhttp://www.shotpix.com/images/73072230309540911322.png&lt;/a&gt;\n    \t &lt;a href=&quot;\nhttp://www.shotpix.com/images/13670534260335518550.png&quot; rel=&quot;nofollow&quot; target=&quot;_NEW&quot;&gt;\nhttp://www.shotpix.com/images/13670534260335518550.png&lt;/a&gt;\n    \t &lt;a href=&quot;\nhttp://www.shotpix.com/images/62698630102743907024.png&quot; rel=&quot;nofollow&quot; target=&quot;_NEW&quot;&gt;\nhttp://www.shotpix.com/images/62698630102743907024.png&lt;/a&gt;","torrent":{"xt":"urn:btih:883b5112bbce106235c438f32deac273c2e69378","amp;dn":"Dark+Skies+2013+Webrip+Xvid+AC3+-+TODE","amp;tr":["udp%3A%2F%2Ftracker.openbittorrent.com%3A80","udp%3A%2F%2Fopen.demonii.com%3A1337","udp%3A%2F%2Ftracker.coppersurfer.tk%3A6969","udp%3A%2F%2Fexodus.desync.com%3A6969"],"infoHash":"883b5112bbce106235c438f32deac273c2e69378","infoHashBuffer":{"type":"Buffer","data":[136,59,81,18,187,206,16,98,53,196,56,243,45,234,194,115,194,230,147,120]},"announce":[],"urlList":[]}}